<svg width="2400" height="1000" viewBox="0 0 2400 1000" fill="none" xmlns="http://www.w3.org/2000/svg">
<rect width="2400" height="1000" rx="20" fill="#EEF8FF"/>
<path d="M329.55 764.4C308.25 764.4 288.9 760.35 271.5 752.25C254.1 744.15 239.4 733.35 227.4 719.85C215.4 706.05 206.85 690.9 201.75 674.4L234.15 662.25C241.95 685.05 254.1 702.45 270.6 714.45C287.1 726.15 306.75 732 329.55 732C343.95 732 356.55 729.75 367.35 725.25C378.45 720.45 387 713.85 393 705.45C399 697.05 402 687.3 402 676.2C402 659.7 397.5 646.95 388.5 637.95C379.5 628.95 366.6 622.05 349.8 617.25L289.5 599.25C265.8 592.35 247.5 580.8 234.6 564.6C222 548.4 215.7 529.95 215.7 509.25C215.7 491.55 220.05 475.95 228.75 462.45C237.45 448.65 249.3 437.85 264.3 430.05C279.6 422.25 296.85 418.35 316.05 418.35C336.15 418.35 354.15 422.1 370.05 429.6C386.25 436.8 399.9 446.4 411 458.4C422.1 470.4 430.05 483.75 434.85 498.45L403.35 511.05C396.15 491.25 384.9 476.25 369.6 466.05C354.6 455.85 336.9 450.75 316.5 450.75C303.6 450.75 292.2 453 282.3 457.5C272.7 462 265.2 468.45 259.8 476.85C254.4 485.25 251.7 495.15 251.7 506.55C251.7 520.35 256.05 532.8 264.75 543.9C273.45 554.7 286.8 562.8 304.8 568.2L357.9 583.95C384.3 591.75 404.25 603 417.75 617.7C431.25 632.4 438 650.85 438 673.05C438 691.05 433.35 706.95 424.05 720.75C415.05 734.25 402.3 744.9 385.8 752.7C369.6 760.5 350.85 764.4 329.55 764.4ZM310.2 804V378.75H341.7V804H310.2Z" fill="#0A162C"/>
<rect x="529" y="571" width="1681" height="40" rx="20" fill="#0A162C"/>
<rect x="529" y="707" width="1681" height="40" rx="20" fill="#0A162C"/>
<rect x="529" y="435" width="1681" height="40" rx="20" fill="#0A162C"/>
<path d="M186.125 190.25C186.917 192.125 187.312 193.604 187.312 194.688C187.312 200.104 182.667 205.396 173.375 210.562C164.125 215.729 154.625 218.312 144.875 218.312C134.208 218.312 125.771 215.208 119.562 209C113.396 202.792 110.312 194.292 110.312 183.5C110.312 166.458 115.896 151.812 127.062 139.562C138.229 127.312 151.583 121.188 167.125 121.188C173.458 121.188 178.792 122.312 183.125 124.562C187.458 126.812 189.625 129.562 189.625 132.812C189.625 135.729 187.75 138.938 184 142.438C178.958 132.354 171.812 127.312 162.562 127.312C152.438 127.312 143.604 132.583 136.062 143.125C128.521 153.625 124.75 165.896 124.75 179.938C124.75 188.896 127 196 131.5 201.25C136.042 206.458 142.167 209.062 149.875 209.062C163.042 209.062 175.125 202.792 186.125 190.25ZM218 188.562C230.417 160.604 243.083 146.625 256 146.625C261.167 146.625 264.896 148.792 267.188 153.125C269.479 157.417 270.625 164.396 270.625 174.062L270.688 181.562C270.688 194.562 272.604 201.167 276.438 201.375C279.521 201.5 284.375 197.792 291 190.25C297.667 182.708 304.438 173.229 311.312 161.812L316.5 164.688C309.75 178.062 302.125 189.375 293.625 198.625C285.167 207.875 278.188 212.5 272.688 212.5C267.562 212.5 263.875 210.104 261.625 205.312C259.375 200.521 258.25 192.688 258.25 181.812V176.25C258.25 163.667 256.083 157.375 251.75 157.375C245.625 157.375 237.812 165.812 228.312 182.688C218.729 199.688 213.938 209.771 213.938 212.938C213.938 213.979 214.333 215 215.125 216C213.25 217.042 210.812 217.562 207.812 217.562C204.104 217.562 202.25 215.917 202.25 212.625C202.25 210.333 203.562 203.396 206.188 191.812C206.271 191.438 206.812 188.75 207.812 183.75L220.625 119.25C217.833 120.292 215.021 120.812 212.188 120.812C204.104 120.812 200.062 116.042 200.062 106.5C204.062 109.5 208.708 111 214 111C221.458 111 228.625 109.5 235.5 106.5L225.25 158.188C225.125 158.771 223.208 166.521 219.5 181.438C219.208 182.688 218.708 185.062 218 188.562ZM311.812 190C311.812 202.208 316.979 208.312 327.312 208.312C336.271 208.312 346.146 204.042 356.938 195.5C367.729 186.958 377.458 175.708 386.125 161.75L391.438 164.688C383.271 179.938 372.646 192.562 359.562 202.562C346.521 212.562 334.146 217.562 322.438 217.562C314.938 217.562 309 215.146 304.625 210.312C300.292 205.479 298.125 198.875 298.125 190.5C298.125 178.417 302.062 168.083 309.938 159.5C317.854 150.917 327.375 146.625 338.5 146.625C343.875 146.625 348.167 147.979 351.375 150.688C354.625 153.396 356.25 157.021 356.25 161.562C356.25 169.021 351.75 175.625 342.75 181.375C333.792 187.125 323.479 190 311.812 190ZM312.312 184C321.021 183.542 328.479 181.042 334.688 176.5C340.938 171.958 344.062 166.708 344.062 160.75C344.062 155.417 341.688 152.75 336.938 152.75C331.271 152.75 326.042 155.792 321.25 161.875C316.458 167.958 313.479 175.333 312.312 184ZM427 179.25C412.625 204.792 399.438 217.562 387.438 217.562C383.021 217.562 379.5 215.604 376.875 211.688C374.25 207.729 372.938 202.458 372.938 195.875C372.938 182.833 376.854 171.375 384.688 161.5C392.562 151.583 401.688 146.625 412.062 146.625C418.229 146.625 424.979 148.583 432.312 152.5C433.521 148.667 438.208 146.75 446.375 146.75H448.188C445.771 150.792 444 155.646 442.875 161.312L428.188 235.25C427.146 240.458 426.625 245 426.625 248.875C426.625 251.333 427.167 253.562 428.25 255.562C424.042 256.938 420.833 257.625 418.625 257.625C415.208 257.625 413.5 255.667 413.5 251.75C413.5 248.708 414.188 243.729 415.562 236.812L427 179.25ZM430.25 162.875C421.542 157.167 414.333 154.312 408.625 154.312C402.375 154.312 396.958 158.146 392.375 165.812C387.833 173.479 385.562 182.542 385.562 193C385.562 201.417 388.292 205.625 393.75 205.625C399.708 205.625 411.104 192.542 427.938 166.375C428.146 166 428.917 164.833 430.25 162.875ZM512.062 177.5C506.312 189.375 499.896 199.021 492.812 206.438C485.729 213.854 479.375 217.562 473.75 217.562C469.208 217.562 465.521 215.958 462.688 212.75C459.854 209.542 458.438 205.375 458.438 200.25C458.438 193.667 460.646 181.583 465.062 164C466.271 159.25 466.875 156.25 466.875 155C466.875 153.75 466.479 152.396 465.688 150.938L474.312 150.875C478.021 150.875 479.875 152.312 479.875 155.188C479.875 156.979 478.667 162.125 476.25 170.625C475.5 173.167 475.021 174.917 474.812 175.875L473.875 179.688C472.042 187.312 471.125 193.125 471.125 197.125C471.125 203.292 473.25 206.375 477.5 206.375C484.458 206.375 493.292 197.75 504 180.5C512.75 166.458 517.125 156.458 517.125 150.5C517.125 149.667 516.875 148.833 516.375 148C519.792 147.042 522.688 146.562 525.062 146.562C528.729 146.562 530.562 147.688 530.562 149.938C530.562 150.479 530.396 151.271 530.062 152.312C529.896 152.938 529.5 154.458 528.875 156.875C528.792 157.333 528.375 159.021 527.625 161.938C527.083 163.979 526.688 165.604 526.438 166.812L525.812 169.812C524.438 176.688 523.75 183.125 523.75 189.125C523.75 198.292 525.958 202.875 530.375 202.875C540.125 202.875 552.5 189.125 567.5 161.625L572.75 164.75C555.667 197.625 540.042 214.062 525.875 214.062C516.333 214.062 511.562 205.792 511.562 189.25C511.562 186.125 511.729 182.208 512.062 177.5ZM568.062 190C568.062 202.208 573.229 208.312 583.562 208.312C592.521 208.312 602.396 204.042 613.188 195.5C623.979 186.958 633.708 175.708 642.375 161.75L647.688 164.688C639.521 179.938 628.896 192.562 615.812 202.562C602.771 212.562 590.396 217.562 578.688 217.562C571.188 217.562 565.25 215.146 560.875 210.312C556.542 205.479 554.375 198.875 554.375 190.5C554.375 178.417 558.312 168.083 566.188 159.5C574.104 150.917 583.625 146.625 594.75 146.625C600.125 146.625 604.417 147.979 607.625 150.688C610.875 153.396 612.5 157.021 612.5 161.562C612.5 169.021 608 175.625 599 181.375C590.042 187.125 579.729 190 568.062 190ZM568.562 184C577.271 183.542 584.729 181.042 590.938 176.5C597.188 171.958 600.312 166.708 600.312 160.75C600.312 155.417 597.938 152.75 593.188 152.75C587.521 152.75 582.292 155.792 577.5 161.875C572.708 167.958 569.729 175.333 568.562 184ZM720.688 133.125L706.625 203.688C705.833 207.604 705.438 210.167 705.438 211.375C705.438 212.542 705.708 213.792 706.25 215.125C701.958 217.25 698.104 218.312 694.688 218.312C692.521 218.312 691.438 217.438 691.438 215.688C691.438 214.812 691.854 212.229 692.688 207.938L707.562 133.125H698.875C689 133.125 680.479 134.062 673.312 135.938C674.688 130.396 676.542 126.938 678.875 125.562C681.208 124.188 686.312 123.5 694.188 123.5H736.5C747.875 123.5 755.396 119.396 759.062 111.188C760.521 113.646 761.25 115.625 761.25 117.125C761.25 122.542 757.896 126.896 751.188 130.188C747.146 132.146 739.479 133.125 728.188 133.125H720.688ZM773.75 215.562C770.917 216.896 768.646 217.562 766.938 217.562C762.688 217.562 760.562 215.688 760.562 211.938C760.562 210.021 761.312 205.25 762.812 197.625L765.938 182.062C767.854 172.812 768.812 165.958 768.812 161.5C768.812 159.083 768.125 157.062 766.75 155.438C771.125 153.938 774.688 153.188 777.438 153.188C780.354 153.188 781.812 155.042 781.812 158.75C781.812 161.042 780.771 167.062 778.688 176.812L775.125 195C783 179.708 790.917 167.833 798.875 159.375C806.875 150.875 814.125 146.625 820.625 146.625C822.917 146.625 824.896 147.292 826.562 148.625C828.229 149.917 829.062 151.5 829.062 153.375C829.062 156.292 825.896 160.167 819.562 165C817.979 161.708 815.729 160.062 812.812 160.062C807.521 160.062 800.771 165.688 792.562 176.938C787.479 183.938 783.062 191.167 779.312 198.625C775.562 206.042 773.688 211.333 773.688 214.5L773.75 215.562ZM881.375 177.812C876.042 188.854 869.458 198.25 861.625 206C853.833 213.708 847.042 217.562 841.25 217.562C836.833 217.562 833.292 215.604 830.625 211.688C828 207.729 826.688 202.479 826.688 195.938C826.688 182.896 830.625 171.417 838.5 161.5C846.417 151.583 855.562 146.625 865.938 146.625C872.229 146.625 879.042 148.583 886.375 152.5C887.458 148.625 891.875 146.688 899.625 146.688C900.125 146.688 900.938 146.708 902.062 146.75C899.688 150.375 897.875 155.333 896.625 161.625L895.562 166.938C894.354 172.854 893.75 179.771 893.75 187.688C893.75 196.812 895.875 201.375 900.125 201.375C904.625 201.375 910.771 197.625 918.562 190.125C926.396 182.583 934.083 173 941.625 161.375L946.5 164.75C938.792 178.5 929.979 189.979 920.062 199.188C910.146 208.354 901.625 212.938 894.5 212.938C885.5 212.938 881 205.438 881 190.438C881 187.312 881.125 183.104 881.375 177.812ZM884.312 162.875C875.562 157.167 868.292 154.312 862.5 154.312C856.208 154.312 850.771 158.146 846.188 165.812C841.604 173.438 839.312 182.5 839.312 193C839.312 201.417 842.062 205.625 847.562 205.625C853.521 205.625 864.917 192.542 881.75 166.375C881.958 166.042 882.812 164.875 884.312 162.875ZM1019.62 164.938C1009.54 181.854 998.854 195.188 987.562 204.938C976.271 214.646 965.792 219.5 956.125 219.5C948.083 219.5 941.562 216.75 936.562 211.25C931.562 205.75 929.062 198.604 929.062 189.812C929.062 178.229 933.375 168.146 942 159.562C950.625 150.938 960.75 146.625 972.375 146.625C977.083 146.625 980.938 147.542 983.938 149.375C986.979 151.167 988.5 153.458 988.5 156.25C988.5 160.833 984.604 164.271 976.812 166.562C977.229 165.562 977.438 164.604 977.438 163.688C977.438 156.938 973.854 153.562 966.688 153.562C960.479 153.562 954.75 157.042 949.5 164C944.292 170.917 941.688 178.5 941.688 186.75C941.688 193.458 943.417 198.938 946.875 203.188C950.375 207.396 954.917 209.5 960.5 209.5C975.833 209.5 993.792 193.604 1014.38 161.812L1019.62 164.938ZM1020.56 180.312L1017.56 195.188C1016.52 200.396 1016 204.938 1016 208.812C1016 211.229 1016.54 213.438 1017.62 215.438C1013.38 216.854 1010.17 217.562 1008 217.562C1004.58 217.562 1002.88 215.604 1002.88 211.688C1002.88 208.646 1003.56 203.667 1004.94 196.75L1020.25 119.625C1016.42 121 1013.15 121.688 1010.44 121.688C1005.56 121.688 1003.12 119.5 1003.12 115.125C1003.12 113.667 1003.54 111.083 1004.38 107.375C1007.42 110.417 1011.08 111.938 1015.38 111.938C1020.92 111.938 1027.46 110.125 1035 106.5L1021.19 177C1027.77 169.083 1034.92 162.042 1042.62 155.875C1050.33 149.708 1055.81 146.625 1059.06 146.625C1061.02 146.625 1063.23 149.417 1065.69 155C1061.6 155.458 1056.02 157.729 1048.94 161.812C1041.9 165.896 1036.12 170.167 1031.62 174.625C1042.12 191.208 1051.29 199.5 1059.12 199.5C1062.79 199.5 1066.38 198.188 1069.88 195.562C1073.42 192.896 1078.1 187.979 1083.94 180.812C1089.48 173.979 1094.02 167.583 1097.56 161.625L1102.75 164.625C1095.17 178.583 1087.15 189.875 1078.69 198.5C1070.23 207.083 1062.92 211.375 1056.75 211.375C1051.67 211.375 1045.44 208.229 1038.06 201.938C1030.73 195.604 1024.9 188.396 1020.56 180.312ZM1097.94 190C1097.94 202.208 1103.1 208.312 1113.44 208.312C1122.4 208.312 1132.27 204.042 1143.06 195.5C1153.85 186.958 1163.58 175.708 1172.25 161.75L1177.56 164.688C1169.4 179.938 1158.77 192.562 1145.69 202.562C1132.65 212.562 1120.27 217.562 1108.56 217.562C1101.06 217.562 1095.12 215.146 1090.75 210.312C1086.42 205.479 1084.25 198.875 1084.25 190.5C1084.25 178.417 1088.19 168.083 1096.06 159.5C1103.98 150.917 1113.5 146.625 1124.62 146.625C1130 146.625 1134.29 147.979 1137.5 150.688C1140.75 153.396 1142.38 157.021 1142.38 161.562C1142.38 169.021 1137.88 175.625 1128.88 181.375C1119.92 187.125 1109.6 190 1097.94 190ZM1098.44 184C1107.15 183.542 1114.6 181.042 1120.81 176.5C1127.06 171.958 1130.19 166.708 1130.19 160.75C1130.19 155.417 1127.81 152.75 1123.06 152.75C1117.4 152.75 1112.17 155.792 1107.38 161.875C1102.58 167.958 1099.6 175.333 1098.44 184ZM1175.38 215.562C1172.54 216.896 1170.27 217.562 1168.56 217.562C1164.31 217.562 1162.19 215.688 1162.19 211.938C1162.19 210.021 1162.94 205.25 1164.44 197.625L1167.56 182.062C1169.48 172.812 1170.44 165.958 1170.44 161.5C1170.44 159.083 1169.75 157.062 1168.38 155.438C1172.75 153.938 1176.31 153.188 1179.06 153.188C1181.98 153.188 1183.44 155.042 1183.44 158.75C1183.44 161.042 1182.4 167.062 1180.31 176.812L1176.75 195C1184.62 179.708 1192.54 167.833 1200.5 159.375C1208.5 150.875 1215.75 146.625 1222.25 146.625C1224.54 146.625 1226.52 147.292 1228.19 148.625C1229.85 149.917 1230.69 151.5 1230.69 153.375C1230.69 156.292 1227.52 160.167 1221.19 165C1219.6 161.708 1217.35 160.062 1214.44 160.062C1209.15 160.062 1202.4 165.688 1194.19 176.938C1189.1 183.938 1184.69 191.167 1180.94 198.625C1177.19 206.042 1175.31 211.333 1175.31 214.5L1175.38 215.562ZM1290 185.25L1288.75 187.625C1283.5 197.417 1280.88 205 1280.88 210.375C1280.88 211.958 1281.48 213.5 1282.69 215C1281.69 215.333 1279.44 216.146 1275.94 217.438C1274.31 218.021 1272.77 218.312 1271.31 218.312C1268.4 218.312 1266.94 216.917 1266.94 214.125C1266.94 208.333 1270.54 199.5 1277.75 187.625L1279.69 184.438H1276.5C1269.67 184.438 1264.38 185.5 1260.62 187.625C1262.58 180.583 1267.85 177.062 1276.44 177.062L1284.19 177.25L1285.88 174.75C1292.42 164.917 1302.42 151.688 1315.88 135.062C1320.42 129.438 1323.81 125.938 1326.06 124.562C1328.31 123.188 1332.67 121.938 1339.12 120.812C1337.92 128.312 1337.31 135.292 1337.31 141.75C1337.31 158.875 1339.29 176.229 1343.25 193.812C1345.42 203.479 1348.73 209.708 1353.19 212.5C1349.27 216.375 1345.92 218.312 1343.12 218.312C1336.54 218.312 1331.46 207.021 1327.88 184.438C1321 185.188 1314.06 185.562 1307.06 185.562L1290 185.25ZM1294.5 177.875L1307.12 178.188C1315.75 178.188 1322.35 177.896 1326.94 177.312C1325.02 162.688 1324.06 150.562 1324.06 140.938L1324.12 136.25C1322.75 138 1319.67 141.792 1314.88 147.625C1306.21 158.25 1299.85 167.521 1295.81 175.438L1294.5 177.875ZM1395.62 183.188L1390.12 210.625C1389.33 214.583 1388.94 217.146 1388.94 218.312C1388.94 219.479 1389.21 220.729 1389.75 222.062C1385.46 224.188 1381.6 225.25 1378.19 225.25C1376.02 225.25 1374.94 224.375 1374.94 222.625C1374.94 221.708 1375.35 219.104 1376.19 214.812L1382.75 182.062C1372.21 179.688 1366.94 176.188 1366.94 171.562C1366.94 170.604 1367.15 169.375 1367.56 167.875C1372.06 171.583 1377.52 174.271 1383.94 175.938L1388.25 154.312C1388.96 150.771 1389.31 148.25 1389.31 146.75C1389.31 145.292 1388.81 143.958 1387.81 142.75C1393.35 140.667 1397.21 139.625 1399.38 139.625C1401.96 139.625 1403.25 141.125 1403.25 144.125C1403.25 144.833 1402.56 148.479 1401.19 155.062L1396.81 177.062C1408.81 177.062 1418.62 174.104 1426.25 168.188C1433.88 162.271 1437.69 154.688 1437.69 145.438C1437.69 140.354 1435.69 136.271 1431.69 133.188C1427.73 130.062 1422.48 128.5 1415.94 128.5C1396.44 128.5 1380.79 136.667 1369 153C1368 150.417 1367.5 148.396 1367.5 146.938C1367.5 140.646 1373.12 134.792 1384.38 129.375C1395.67 123.917 1407.88 121.188 1421 121.188C1440.92 121.188 1450.88 128.521 1450.88 143.188C1450.88 153.896 1445.69 163.25 1435.31 171.25C1424.98 179.25 1412.9 183.25 1399.06 183.25L1395.62 183.188ZM1483.5 183.188L1478 210.625C1477.21 214.583 1476.81 217.146 1476.81 218.312C1476.81 219.479 1477.08 220.729 1477.62 222.062C1473.33 224.188 1469.48 225.25 1466.06 225.25C1463.9 225.25 1462.81 224.375 1462.81 222.625C1462.81 221.708 1463.23 219.104 1464.06 214.812L1470.62 182.062C1460.08 179.688 1454.81 176.188 1454.81 171.562C1454.81 170.604 1455.02 169.375 1455.44 167.875C1459.94 171.583 1465.4 174.271 1471.81 175.938L1476.12 154.312C1476.83 150.771 1477.19 148.25 1477.19 146.75C1477.19 145.292 1476.69 143.958 1475.69 142.75C1481.23 140.667 1485.08 139.625 1487.25 139.625C1489.83 139.625 1491.12 141.125 1491.12 144.125C1491.12 144.833 1490.44 148.479 1489.06 155.062L1484.69 177.062C1496.69 177.062 1506.5 174.104 1514.12 168.188C1521.75 162.271 1525.56 154.688 1525.56 145.438C1525.56 140.354 1523.56 136.271 1519.56 133.188C1515.6 130.062 1510.35 128.5 1503.81 128.5C1484.31 128.5 1468.67 136.667 1456.88 153C1455.88 150.417 1455.38 148.396 1455.38 146.938C1455.38 140.646 1461 134.792 1472.25 129.375C1483.54 123.917 1495.75 121.188 1508.88 121.188C1528.79 121.188 1538.75 128.521 1538.75 143.188C1538.75 153.896 1533.56 163.25 1523.19 171.25C1512.85 179.25 1500.77 183.25 1486.94 183.25L1483.5 183.188Z" fill="#0A162C"/>
</svg>
